?xml version="1.0" encoding="utf-8"?>
<!-- Generator: Adobe Illustrator 24.0.3, SVG Export Plug-In . SVG Version: 6.00 Build 0)  -->
<svg version="1.0" id="Capa_1" xmlns="http://www.w3.org/2000/svg" xmlns:xlink="http://www.w3.org/1999/xlink" x="0px" y="0px"
	 viewBox="0 0 444.7 571.8" style="enable-background:new 0 0 444.7 571.8;" xml:space="preserve">
<style type="text/css">
	.st0{opacity:0.5;fill:url(#SVGID_1_);enable-background:new    ;}
	.st1{fill:url(#SVGID_2_);}
	.st2{fill:url(#SVGID_3_);}
	.st3{fill:#E0F0FF;}
	.st4{fill:url(#SVGID_4_);}
	.st5{fill:url(#SVGID_5_);}
	.st6{fill:url(#SVGID_6_);}
	.st7{opacity:0.25;enable-background:new    ;}
	.st8{fill:none;stroke:url(#SVGID_7_);stroke-width:2;stroke-miterlimit:10;}
	.st9{fill:none;stroke:url(#SVGID_8_);stroke-width:3;stroke-miterlimit:10;}
	.st10{fill:#FFCAD3;}
	.st11{fill:url(#SVGID_9_);}
	.st12{fill:url(#SVGID_10_);}
	.st13{fill:#2A3249;}
	.st14{fill:url(#SVGID_11_);}
	.st15{fill:url(#SVGID_12_);}
	.st16{fill:url(#SVGID_13_);}
	.st17{fill:url(#SVGID_14_);}
	.st18{fill:url(#SVGID_15_);}
	.st19{fill:url(#SVGID_16_);}
	.st20{fill:url(#SVGID_17_);}
	.st21{fill:url(#SVGID_18_);}
	.st22{fill:url(#SVGID_19_);}
	.st23{fill:url(#SVGID_20_);}
	.st24{fill:none;stroke:#E16D90;stroke-width:1.0428;stroke-linecap:round;stroke-linejoin:round;stroke-miterlimit:10;}
	.st25{fill:url(#SVGID_21_);}
	.st26{fill:url(#SVGID_22_);}
	.st27{fill:#201559;}
	.st28{fill:#FFFFFF;}
	.st29{fill:url(#SVGID_23_);}
	.st30{fill:url(#SVGID_24_);}
	.st31{fill:url(#SVGID_25_);}
	.st32{fill:url(#SVGID_26_);}
	.st33{fill:url(#SVGID_27_);}
	.st34{fill:url(#SVGID_28_);}
	.st35{fill:url(#SVGID_29_);}
	.st36{fill:url(#SVGID_30_);}
	.st37{fill:url(#SVGID_31_);}
	.st38{fill:url(#SVGID_32_);}
	.st39{fill:url(#SVGID_33_);}
	.st40{fill:url(#SVGID_34_);}
	.st41{fill:url(#SVGID_35_);}
	.st42{fill:url(#SVGID_36_);}
	.st43{opacity:0.58;fill:#FFFFFF;enable-background:new    ;}
	.st44{fill:url(#SVGID_37_);}
	.st45{fill:url(#SVGID_38_);}
	.st46{opacity:0.25;}
	.st47{fill:url(#SVGID_39_);}
	.st48{fill:url(#SVGID_40_);}
	.st49{fill:url(#SVGID_41_);}
	.st50{fill:url(#SVGID_42_);}
	.st51{fill:url(#SVGID_43_);}
	.st52{fill:url(#SVGID_44_);}
	.st53{fill:url(#SVGID_45_);}
	.st54{fill:url(#SVGID_46_);}
	.st55{fill:url(#SVGID_47_);}
	.st56{fill:url(#SVGID_48_);}
	.st57{opacity:0.58;enable-background:new    ;}
	.st58{fill:url(#SVGID_49_);}
	.st59{fill:url(#SVGID_50_);}
	.st60{fill:url(#SVGID_51_);}
	.st61{fill:url(#SVGID_52_);}
	.st62{fill:url(#SVGID_53_);}
	.st63{fill:url(#SVGID_54_);}
	.st64{fill:url(#SVGID_55_);}
	.st65{fill:url(#SVGID_56_);}
	.st66{fill:url(#SVGID_57_);}
	.st67{fill:url(#SVGID_58_);}
	.st68{fill:#A4C639;}
	.st69{fill:url(#SVGID_59_);}
	.st70{fill:url(#SVGID_60_);}
	.st71{fill:#F38AB8;}
	.st72{fill:url(#SVGID_61_);}
	.st73{fill:url(#SVGID_62_);}
	.st74{fill:url(#SVGID_63_);}
	.st75{fill:url(#SVGID_64_);}
	.st76{fill:#FDDE10;}
	.st77{fill:url(#SVGID_65_);}
	.st78{fill:url(#SVGID_66_);}
	.st79{fill:#33AEFF;}
</style>
<g>
	
		<linearGradient id="SVGID_1_" gradientUnits="userSpaceOnUse" x1="456.2655" y1="-266.5552" x2="-379.9256" y2="593.7146" gradientTransform="matrix(1 0 0 -1 0 413.4542)">
		<stop  offset="5.327789e-07" style="stop-color:#E0F0FF"/>
		<stop  offset="1" style="stop-color:#9CB1EC"/>
	</linearGradient>
	<path class="st0" d="M32.5,474.3c-19-11-19-29-0.1-40l173.5-100.8c19-11,50.1-11.1,69.1-0.1l155.5,89.8c19,11,19,28.9,0,39.9
		L256.3,563.6c-19,11-50.1,11-69.1,0L32.5,474.3z"/>
	<g>
		<g>
			
				<linearGradient id="SVGID_2_" gradientUnits="userSpaceOnUse" x1="306.4716" y1="-42.3431" x2="158.7153" y2="185.8584" gradientTransform="matrix(1 0 0 -1 0 413.4542)">
				<stop  offset="0" style="stop-color:#2A3264"/>
				<stop  offset="1" style="stop-color:#4F61A5"/>
			</linearGradient>
			<path class="st1" d="M255.3,34v6.5l-5.5,8.4l-0.1,0.2l-7.4-3.1v313.9c0,13.3-10.8,30.4-24.1,38l-103.8,59.9l-3.6,2.1c0,0,0,0,0,0
				l-1.5,0.9c0.6,0.8,1,1.5,1,1.5l3.7,9.9l0,0.2c-4.4,1.5-8.4,1.6-11.6,0.3l-2.6-1.5l-9.8-5.7l0,0c-4.8-1.6-7.8-6.2-7.8-13.2V119
				c0-13.3,10.8-30.4,24.1-38.1l111.8-64.6c7.5-4.3,14.2-4.8,18.6-2l11.9,6.9c0,0,0.1,0,0.1,0.1L250,22
				C253.3,24.2,255.3,28.3,255.3,34z"/>
			<g>
				
					<linearGradient id="SVGID_3_" gradientUnits="userSpaceOnUse" x1="140.1969" y1="416.8452" x2="164.2757" y2="245.01" gradientTransform="matrix(1 0 0 -1 0 413.4542)">
					<stop  offset="5.327789e-07" style="stop-color:#E0F0FF"/>
					<stop  offset="1" style="stop-color:#9CB1EC"/>
				</linearGradient>
				<path class="st2" d="M255.3,34v333.3c0,13.3-10.8,30.4-24.1,38l-30.4,17.5l-79,45.6l-2.4,1.4c-1.9,1.1-3.6,1.9-5.4,2.5
					c-4.4,1.5-8.4,1.6-11.6,0.3c-0.9-0.4-1.8-0.9-2.6-1.5c-2.9-2.3-4.6-6.2-4.6-11.5V126.5c0-13.3,10.8-30.4,24.1-38.1l111.8-64.6
					c6.9-4,13.1-4.7,17.5-2.6c0,0,0.1,0,0.1,0.1c0.4,0.2,0.8,0.4,1.2,0.7C253.3,24.2,255.3,28.3,255.3,34z"/>
				<path class="st3" d="M250.2,52.6v307.9c0,12.4-10.1,28.3-22.5,35.4l-104.9,60.5c-3.2,1.8-6.2,2.9-9,3.3
					c-7.9,1.1-13.5-3.6-13.5-12.8V139.1c0-12.4,10.1-28.3,22.4-35.4l104.9-60.6c4.7-2.7,9-3.8,12.6-3.4
					C246.3,40.3,250.2,44.9,250.2,52.6z"/>
				
					<linearGradient id="SVGID_4_" gradientUnits="userSpaceOnUse" x1="434.7236" y1="424.5175" x2="76.0042" y2="12.4418" gradientTransform="matrix(1 0 0 -1 0 413.4542)">
					<stop  offset="1.400000e-02" style="stop-color:#FFFFFF"/>
					<stop  offset="0.9911" style="stop-color:#FFFFFF;stop-opacity:0"/>
				</linearGradient>
				<path class="st4" d="M250.2,52.6v307.9c0,12.4-10.1,28.3-22.5,35.4l-104.9,60.5c-3.2,1.8-6.2,2.9-9,3.3l126.4-420
					C246.3,40.3,250.2,44.9,250.2,52.6z"/>
				<g>
					
						<linearGradient id="SVGID_5_" gradientUnits="userSpaceOnUse" x1="166.9244" y1="384.9613" x2="161.8167" y2="364.3484" gradientTransform="matrix(1 0 0 -1 0 413.4542)">
						<stop  offset="0" style="stop-color:#2A3264"/>
						<stop  offset="1" style="stop-color:#4F61A5"/>
					</linearGradient>
					<path class="st5" d="M156.8,75.7c0,1-0.8,2.3-1.9,2.9c-1,0.6-1.9,0.2-1.9-0.8s0.8-2.3,1.9-2.9S156.8,74.7,156.8,75.7z"/>
					
						<linearGradient id="SVGID_6_" gradientUnits="userSpaceOnUse" x1="189.1579" y1="379.4521" x2="184.0503" y2="358.8391" gradientTransform="matrix(1 0 0 -1 0 413.4542)">
						<stop  offset="0" style="stop-color:#2A3264"/>
						<stop  offset="1" style="stop-color:#4F61A5"/>
					</linearGradient>
					<path class="st6" d="M202,51.5L163,74c-1,0.6-1.9,0.2-1.9-0.8l0,0c0-1,0.8-2.3,1.9-2.9l39-22.5c1-0.6,1.9-0.2,1.9,0.8l0,0
						C203.8,49.6,203,50.9,202,51.5z"/>
				</g>
			</g>
		</g>
		<path class="st7" d="M124.9,281.3v71.1c0,3.9-3.2,8.9-7.1,11.1l-17.5,10.1l-5.1,3l-13,7.5v-85.3l13-7.5l5.1-3l17.5-10.1
			C121.8,276,124.9,277.4,124.9,281.3z"/>
		<path class="st7" d="M255.3,143.1v64.8l-5.1,3l-7.8,4.5l-66.5,38.4l-16.5,9.5c-3.6,2.1-6.6,0.4-6.6-3.8v-49.5
			c0-4.2,3-9.4,6.7-11.5l40.1-23.1l42.8-24.7l7.8-4.5L255.3,143.1z"/>
		<path class="st7" d="M200.8,355v66.9c0,0.3,0,0.6-0.1,0.9l-79,45.6c0-0.3-0.1-0.6-0.1-0.9v-66.9c0-5.6,4.5-12.8,10.1-16l5.5-3.2
			l53.3-30.8C196.3,347.5,200.8,349.4,200.8,355z"/>
		<g>
			
				<linearGradient id="SVGID_7_" gradientUnits="userSpaceOnUse" x1="182.7898" y1="139.589" x2="184.8726" y2="102.6665" gradientTransform="matrix(1 0 0 -1 0 413.4542)">
				<stop  offset="1.400000e-02" style="stop-color:#FFB873"/>
				<stop  offset="0.9911" style="stop-color:#FFD19A"/>
			</linearGradient>
			<path class="st8" d="M196.4,285.1c0,9-5.6,19.5-12.6,23.5c-1.6,0.9-3.1,1.4-4.5,1.5c-0.9,0.1-1.7,0-2.5-0.2
				c-0.6-0.2-1.2-0.5-1.7-0.8c-2.4-1.6-3.8-4.9-3.8-9.5c0-9,5.6-19.5,12.6-23.5c2.7-1.6,5.3-1.9,7.3-1.2c0.4,0.1,0.8,0.3,1.1,0.5
				c0,0,0,0,0,0c0.5,0.3,0.9,0.6,1.3,1.1C195.4,278.3,196.4,281.2,196.4,285.1z"/>
			
				<linearGradient id="SVGID_8_" gradientUnits="userSpaceOnUse" x1="183.2715" y1="131.0513" x2="184.3909" y2="111.2083" gradientTransform="matrix(1 0 0 -1 0 413.4542)">
				<stop  offset="1.400000e-02" style="stop-color:#FFB873"/>
				<stop  offset="0.9911" style="stop-color:#FFD19A"/>
			</linearGradient>
			<path class="st9" d="M189.9,288.8c0,4.3-2.7,9.4-6.1,11.3c-0.8,0.4-1.5,0.7-2.2,0.7c-0.4,0-0.8,0-1.2-0.1
				c-0.3-0.1-0.6-0.2-0.8-0.4c-1.1-0.8-1.8-2.4-1.8-4.6c0-4.3,2.7-9.4,6.1-11.3c1.3-0.8,2.5-0.9,3.5-0.6c0.2,0.1,0.4,0.1,0.6,0.3
				l0,0c0.2,0.1,0.4,0.3,0.6,0.5C189.4,285.6,189.9,287,189.9,288.8z"/>
			<path class="st10" d="M359.1,288.4c0,4.3-2.6,23.5-9.1,31c-1.2,1.4-2.5,2.3-3.9,2.7c-9.3,2.7-13.3-38.9-13.3-38.9l2-24.3
				l19.5,3.8c0,0,1.2,5.2,2.4,11C357.9,279.6,359.1,285.9,359.1,288.4z"/>
			
				<linearGradient id="SVGID_9_" gradientUnits="userSpaceOnUse" x1="372.3142" y1="211.476" x2="258.2135" y2="-121.7963" gradientTransform="matrix(1 0 0 -1 0 413.4542)">
				<stop  offset="0" style="stop-color:#FFBFCD"/>
				<stop  offset="1" style="stop-color:#E16D90"/>
			</linearGradient>
			<path class="st11" d="M350.2,292.5c-0.4,6.4-0.2,19.4-0.1,27c-1.2,1.4-2.5,2.3-3.9,2.7c-9.3,2.7-13.3-38.9-13.3-38.9l2-24.3
				l19.5,3.8c0,0,1.2,5.2,2.4,11C352.8,279.7,350.6,284.4,350.2,292.5z"/>
			<path class="st10" d="M280.7,298.7l-8.4,9.9l-14.1,16.5c-3.1,3.7-8.3,4.8-12.6,2.8l-40.9-19.1c0,0-14.2,0.3-14.9-1.6
				c-0.7-1.9,1.7-10.7,1.7-10.7s-2.5-0.6-5.6-1.9c-3.1-1.2-4-2-3.5-3.2c0.5-1.2,12.3,1.9,12.3,1.9s4.5-2.5,5.9-1.9
				c1.4,0.6,4.3,5.8,6.4,6c2.1,0.1,39.5,10.3,39.5,10.3l10.5-18.5l2.1-3.8L280.7,298.7z"/>
			
				<linearGradient id="SVGID_10_" gradientUnits="userSpaceOnUse" x1="220.9416" y1="90.7571" x2="552.5723" y2="281.1985" gradientTransform="matrix(1 0 0 -1 0 413.4542)">
				<stop  offset="0" style="stop-color:#FFBFCD"/>
				<stop  offset="1" style="stop-color:#E16D90"/>
			</linearGradient>
			<path class="st12" d="M280.7,298.7l-8.4,9.9c-6.2-5.1-12.7-12.8-15.2-19.5l2.1-3.8L280.7,298.7z"/>
			<path class="st13" d="M295.2,487.7c0,0-20.5-2.7-24.6-0.7c-4.2,2-5,6.7,3.3,10.9c8.4,4.2,21.2,12.1,26.2,12.3s10.1-2.7,10.1-6.3
				s-2.3-16.8-2.3-16.8"/>
			<path class="st13" d="M332.8,468.9c0,0-20.5-2.7-24.6-0.7c-4.2,2-5,6.7,3.3,10.9c8.4,4.2,21.2,12.1,26.2,12.3s10.1-2.7,10.1-6.3
				c0-3.6-2.3-16.8-2.3-16.8"/>
			
				<linearGradient id="SVGID_11_" gradientUnits="userSpaceOnUse" x1="338.8362" y1="178.1425" x2="327.6176" y2="-124.7582" gradientTransform="matrix(1 0 0 -1 0 413.4542)">
				<stop  offset="0" style="stop-color:#2A3264"/>
				<stop  offset="1" style="stop-color:#4F61A5"/>
			</linearGradient>
			<path class="st14" d="M347.2,479.1c-3.1,2.2-7.5,2.5-11.1,1.7c-3.7-0.8-6.7-2.7-7-4.9c-0.5-4.4-7.8-48.6-9.3-59.4
				c-0.3-2.3-0.6-7.3-0.9-13.8c-0.5-11.3-0.9-26.9-1.1-40.4c-0.1-4-0.1-7.8-0.2-11.2c-0.2-9.6-0.3-16.4-0.3-16.4l10.8-4.6l19.5-8.4
				c0.1,2,0.3,4.1,0.4,6.2c1.5,31.9-3.1,71.9-3.3,75.5C344.5,407.2,350.3,457,347.2,479.1z"/>
			
				<linearGradient id="SVGID_12_" gradientUnits="userSpaceOnUse" x1="307.1237" y1="59.5161" x2="382.6436" y2="-176.8939" gradientTransform="matrix(1 0 0 -1 0 413.4542)">
				<stop  offset="0" style="stop-color:#2A3264"/>
				<stop  offset="1" style="stop-color:#4F61A5"/>
			</linearGradient>
			<path class="st15" d="M336.1,480.7c-3.7-0.8-6.7-2.7-7-4.9c-0.5-4.4-7.8-48.6-9.3-59.4c-0.9-6.3-1.6-33-2-54.2l6.2-8.5
				c7.7,30.4,8.6,67,8.8,91.8C332.9,460.1,334.7,472.8,336.1,480.7z"/>
			
				<linearGradient id="SVGID_13_" gradientUnits="userSpaceOnUse" x1="308.6126" y1="188.8114" x2="296.2999" y2="-143.6343" gradientTransform="matrix(1 0 0 -1 0 413.4542)">
				<stop  offset="0" style="stop-color:#2A3264"/>
				<stop  offset="1" style="stop-color:#4F61A5"/>
			</linearGradient>
			<path class="st16" d="M327.3,348.5c-1.5,16.9-4.9,38.4-8.4,54.1c-1.5,6.8-3,12.5-4.4,16.3c2.3,17-1.6,53.5-1.7,59.5
				c0,6,1.1,15.7-8,15.9c-9.1,0.2-15.2-2-15-6c0.2-3.8-10-97.6-9.3-145.9c0-3.1,0.1-6.1,0.3-8.8l18.3-6c0,0,26.8-18.1,28.6,0
				c0.1,0.8,0.1,1.6,0.2,2.5C328.3,334.7,328,341.2,327.3,348.5z"/>
			
				<linearGradient id="SVGID_14_" gradientUnits="userSpaceOnUse" x1="312.2736" y1="87.8543" x2="380.6793" y2="-144.1778" gradientTransform="matrix(1 0 0 -1 0 413.4542)">
				<stop  offset="0" style="stop-color:#2A3264"/>
				<stop  offset="1" style="stop-color:#4F61A5"/>
			</linearGradient>
			<path class="st17" d="M348,327.8c-3.4,9.6-10.3,16.8-20.7,20.6c-3,1.1-6.2,2-9.7,2.5c-3.4,0.5-7,0.8-10.9,0.8
				c-14.7-0.1-22.2-5-26-9.5c0-3.1,0.1-6.1,0.3-8.8l18.3-6c0,0,26.8-18.1,28.6,0c0.1,0.8,0.1,1.6,0.2,2.5l19.5-8.4
				C347.8,323.7,347.9,325.7,348,327.8z"/>
			
				<linearGradient id="SVGID_15_" gradientUnits="userSpaceOnUse" x1="303.7161" y1="187.8447" x2="316.8501" y2="-31.0534" gradientTransform="matrix(1 0 0 -1 0 413.4542)">
				<stop  offset="1.400000e-02" style="stop-color:#FFB8A4"/>
				<stop  offset="0.9911" style="stop-color:#F54F6E"/>
			</linearGradient>
			<path class="st18" d="M356.2,264.4c0,0-0.7,2.2-3,4.7c-1.2,1.3-2.8,2.7-4.9,3.9c-1.6,17.8,1.5,43.7,0,49.5
				c-2.7,10.9-26.1,21.7-39.2,24.1c-1.8,0.3-3.5,0.4-5.3,0.2c-11.7-0.9-23.2-10.4-22.8-13.4c0.5-3.5,2.5-34.6,2.5-34.6l-2.9,3.5
				c-13.2-3.2-23.4-16.2-23.4-17.6s18.4-39.1,21.7-43.4c2-2.6,10.2-9.2,16.3-14.1c3.9-3.1,6.9-5.4,6.9-5.4l14-6.8
				c2.2-0.1,4.8-1,7.7-1.6c4.6-1,10-1.4,15.6,2.3C348.7,221.9,356.2,264.4,356.2,264.4z"/>
			
				<linearGradient id="SVGID_16_" gradientUnits="userSpaceOnUse" x1="329.5592" y1="204.8553" x2="370.6026" y2="88.0184" gradientTransform="matrix(1 0 0 -1 0 413.4542)">
				<stop  offset="1.400000e-02" style="stop-color:#FFB8A4"/>
				<stop  offset="0.9911" style="stop-color:#F54F6E"/>
			</linearGradient>
			<path class="st19" d="M342.9,239.7c0.3,0.5,8.1,13.9,10.3,29.4c-1.2,1.3-2.8,2.7-4.9,3.9C347.7,258,343,240.3,342.9,239.7z"/>
			
				<linearGradient id="SVGID_17_" gradientUnits="userSpaceOnUse" x1="297.9808" y1="264.4982" x2="289.7722" y2="-15.418" gradientTransform="matrix(1 0 0 -1 0 413.4542)">
				<stop  offset="1.400000e-02" style="stop-color:#FFB8A4"/>
				<stop  offset="0.9911" style="stop-color:#F54F6E"/>
			</linearGradient>
			<path class="st20" d="M303.8,346.9c-11.7-0.9-23.2-10.4-22.8-13.4c0.5-3.5,2.5-34.6,2.5-34.6c10-17.6,15.2-30,15.2-30
				s5.6,8.4,1.8,28.2C297.6,311.8,303.4,330.6,303.8,346.9z"/>
			
				<linearGradient id="SVGID_18_" gradientUnits="userSpaceOnUse" x1="307.937" y1="225.6305" x2="310.7778" y2="172.2862" gradientTransform="matrix(1 0 0 -1 0 413.4542)">
				<stop  offset="1.400000e-02" style="stop-color:#FFB8A4"/>
				<stop  offset="0.9911" style="stop-color:#F54F6E"/>
			</linearGradient>
			<path class="st21" d="M314.7,227.7c-9.5,3.1-14.7-0.8-19.5-0.4c3.9-3.1,6.9-5.4,6.9-5.4l14-6.8c2.2-0.1,4.8-1,7.7-1.6
				C325.7,217.9,323.1,224.9,314.7,227.7z"/>
			<path class="st10" d="M320.3,218.6c-0.8,2.1-7.8,6-14.1,5.9c-1.7,0-3.4-0.3-4.9-1.1c0.3-4-0.8-7.8-1-8.2c0,0,0,0,0,0
				s-8.5,1.7-10.6-0.2c-2.1-1.9-3.1-11.5-3.1-11.5s-2.6-0.4-2.5-1.7c0.1-1.3,1.7-6,1.8-6.9s-1.4-4.2-0.5-10.1l17.7-6.8l2.8,1.5
				c0,0,12.2,18.8,12.4,24.8C318.6,210.5,321.3,215.8,320.3,218.6z"/>
			
				<linearGradient id="SVGID_19_" gradientUnits="userSpaceOnUse" x1="295.1683" y1="220.0863" x2="389.2947" y2="360.7284" gradientTransform="matrix(1 0 0 -1 0 413.4542)">
				<stop  offset="0" style="stop-color:#2A3264"/>
				<stop  offset="1" style="stop-color:#4F61A5"/>
			</linearGradient>
			<path class="st22" d="M286.4,170.6c-3.1-4.9-1.1-15.1,3.8-18.2c4.6,4.2,43.3,9,41.5,24.3s-5.2,14.9-6.1,19.2s-3.4,10.7-10.1,10.9
				s-9.3-5.2-9.3-5.2s2.9-0.6,3.1-4.9s-2.5-5.5-4.5-4.6c-2,0.9-2.7,6.7-2.7,6.9s-2.4-2.9-2.6-8.4c-10.3-1.5-18-5.6-20.4-13.9
				c-2.3-8.3,1.6-12,1.6-12S282.9,168.9,286.4,170.6z"/>
			
				<linearGradient id="SVGID_20_" gradientUnits="userSpaceOnUse" x1="264.463" y1="197.6738" x2="476.0645" y2="186.9113" gradientTransform="matrix(1 0 0 -1 0 413.4542)">
				<stop  offset="0" style="stop-color:#FFBFCD"/>
				<stop  offset="1" style="stop-color:#E16D90"/>
			</linearGradient>
			<path class="st23" d="M306.2,224.5c-1.7,0-3.4-0.3-4.9-1.1c0.3-4-0.8-7.8-1-8.2c5.3-1.1,9.2-4.2,9.5-3.7
				c0.3,0.6-5.2,6.4-5.3,10.1C304.4,223,305.2,223.9,306.2,224.5z"/>
			<path class="st24" d="M307,194.9c-1.1-1.1-3.5,1.5-1.6,4"/>
		</g>
		<path class="st7" d="M155.6,101.1l-0.2,49.6c0,4.2-3,9.4-6.7,11.5l-48.3,27.9l-5.1,3l-13,7.5v-64.8l13-7.5l9.9-5.7L149,97.3
			C152.6,95.2,155.6,96.9,155.6,101.1z"/>
		<g>
			
				<linearGradient id="SVGID_21_" gradientUnits="userSpaceOnUse" x1="-72.8638" y1="233.7911" x2="211.7038" y2="258.9643" gradientTransform="matrix(1 0 0 -1 0 413.4542)">
				<stop  offset="5.327789e-07" style="stop-color:#E0F0FF"/>
				<stop  offset="1" style="stop-color:#FFFFFF"/>
			</linearGradient>
			<path class="st25" d="M48.2,230.2c-3.7,2.1-6.7,0.4-6.7-3.8v-49.5c0-4.2,3-9.4,6.7-11.5l118-68.1c3.7-2.1,6.6-0.4,6.6,3.8
				l-0.2,49.6c0,4.2-3,9.4-6.7,11.5L48.2,230.2z"/>
			<g>
				
					<linearGradient id="SVGID_22_" gradientUnits="userSpaceOnUse" x1="82.416" y1="311.6952" x2="82.0512" y2="124.5373" gradientTransform="matrix(1 0 0 -1 0 413.4542)">
					<stop  offset="1.400000e-02" style="stop-color:#FFBAC0"/>
					<stop  offset="1" style="stop-color:#F54A8F"/>
				</linearGradient>
				<path class="st26" d="M100.8,187.6l-37,21.4c-2.8,1.6-5,0.6-5-2.1v-29.4c0-2.8,2.3-6.4,5-8l37-21.4c2.8-1.6,5-0.6,5,2.1v29.4
					C105.8,182.4,103.6,186,100.8,187.6z"/>
				<polygon class="st27" points="105.8,173.3 58.7,200.5 58.7,192.4 105.8,165.2 				"/>
				
					<ellipse transform="matrix(0.6011 -0.7992 0.7992 0.6011 -86.0443 142.6257)" class="st27" cx="99.8" cy="157.5" rx="3.7" ry="2.1"/>
				
					<ellipse transform="matrix(0.6011 -0.7992 0.7992 0.6011 -88.4121 141.0641)" class="st28" cx="97.1" cy="159.1" rx="3.7" ry="2.1"/>
				<path class="st28" d="M75.7,172.3l-11.1,6.4c-0.5,0.3-0.9,0.1-0.9-0.4l0,0c0-0.5,0.4-1.1,0.9-1.4l11.1-6.4
					c0.5-0.3,0.9-0.1,0.9,0.4l0,0C76.6,171.3,76.2,172,75.7,172.3z"/>
			</g>
			<g>
				
					<linearGradient id="SVGID_23_" gradientUnits="userSpaceOnUse" x1="131.7225" y1="340.6853" x2="140.1136" y2="233.79" gradientTransform="matrix(1 0 0 -1 0 413.4542)">
					<stop  offset="5.327789e-07" style="stop-color:#E0F0FF"/>
					<stop  offset="1" style="stop-color:#9CB1EC"/>
				</linearGradient>
				<path class="st29" d="M155.9,131.3l-37.7,21.8c-1,0.6-1.7,0.2-1.7-0.7l0,0c0-1,0.8-2.2,1.7-2.7l37.7-21.8c1-0.6,1.7-0.2,1.7,0.7
					l0,0C157.6,129.5,156.8,130.8,155.9,131.3z"/>
				
					<linearGradient id="SVGID_24_" gradientUnits="userSpaceOnUse" x1="123.7987" y1="340.0633" x2="132.1898" y2="233.168" gradientTransform="matrix(1 0 0 -1 0 413.4542)">
					<stop  offset="5.327789e-07" style="stop-color:#E0F0FF"/>
					<stop  offset="1" style="stop-color:#9CB1EC"/>
				</linearGradient>
				<path class="st30" d="M142.7,152.7l-24.5,14.1c-1,0.6-1.7,0.2-1.7-0.7l0,0c0-1,0.8-2.2,1.7-2.7l24.5-14.1c1-0.6,1.7-0.2,1.7,0.7
					l0,0C144.4,150.9,143.6,152.1,142.7,152.7z"/>
			</g>
		</g>
		<g>
			
				<linearGradient id="SVGID_25_" gradientUnits="userSpaceOnUse" x1="366.8912" y1="328.6133" x2="212.5678" y2="204.9359" gradientTransform="matrix(1 0 0 -1 0 413.4542)">
				<stop  offset="5.327789e-07" style="stop-color:#E0F0FF"/>
				<stop  offset="1" style="stop-color:#FFFFFF"/>
			</linearGradient>
			<path class="st31" d="M151,277.1c-3.7,2.1-6.6,0.4-6.6-3.8v-49.5c0-4.2,3-9.4,6.6-11.5l118-68.1c3.7-2.1,6.6-0.4,6.6,3.8
				l-0.2,49.6c0,4.2-3,9.4-6.7,11.5L151,277.1z"/>
			
				<linearGradient id="SVGID_26_" gradientUnits="userSpaceOnUse" x1="184.7974" y1="280.9674" x2="178.2306" y2="-5.7892" gradientTransform="matrix(1 0 0 -1 0 413.4542)">
				<stop  offset="2.663895e-07" style="stop-color:#79D0FF"/>
				<stop  offset="1" style="stop-color:#0E3BF0"/>
			</linearGradient>
			<path class="st32" d="M167,236.1c0,4.4-3.5,9.9-7.9,12.5v6.8c0,2.8,2.3,3.7,5,2.1l18.1-10.5l0,0v-2.3c0-0.2,0.2-0.5,0.4-0.6
				c0.2-0.1,0.4,0,0.4,0.2v2.3l0,0l18.1-10.5c2.8-1.6,5.1-5.2,5.1-8v-6.8c-4.4,2.5-7.9,1-7.9-3.3c0-4.4,3.5-9.9,7.9-12.5v-6.8
				c0-2.8-2.3-3.7-5.1-2.1L183,207.1l0,0v2.3c0,0.2-0.2,0.5-0.4,0.6c-0.2,0.1-0.4,0.1-0.4-0.2v-2.3l0,0L164.1,218
				c-2.8,1.6-5,5.2-5,8v6.8C163.5,230.3,167,231.7,167,236.1z M182.3,234.8c0-0.2,0.2-0.5,0.4-0.6s0.4,0,0.4,0.2v5
				c0,0.2-0.2,0.5-0.4,0.6c-0.2,0.1-0.4,0-0.4-0.2V234.8z M182.3,224.8c0-0.2,0.2-0.5,0.4-0.6c0.2-0.1,0.4,0,0.4,0.2v5
				c0,0.2-0.2,0.5-0.4,0.6c-0.2,0.1-0.4,0-0.4-0.2V224.8z M182.3,214.8c0-0.2,0.2-0.5,0.4-0.6c0.2-0.1,0.4,0,0.4,0.2v5
				c0,0.2-0.2,0.5-0.4,0.6c-0.2,0.1-0.4,0-0.4-0.2V214.8z"/>
			<g>
				
					<linearGradient id="SVGID_27_" gradientUnits="userSpaceOnUse" x1="234.5228" y1="293.7603" x2="242.914" y2="186.865" gradientTransform="matrix(1 0 0 -1 0 413.4542)">
					<stop  offset="5.327789e-07" style="stop-color:#E0F0FF"/>
					<stop  offset="1" style="stop-color:#9CB1EC"/>
				</linearGradient>
				<path class="st33" d="M258.7,178.2L221,200c-1,0.6-1.7,0.2-1.7-0.7l0,0c0-1,0.8-2.2,1.7-2.7l37.7-21.8c1-0.6,1.7-0.2,1.7,0.7
					l0,0C260.4,176.5,259.6,177.7,258.7,178.2z"/>
				
					<linearGradient id="SVGID_28_" gradientUnits="userSpaceOnUse" x1="226.5991" y1="293.1382" x2="234.9901" y2="186.243" gradientTransform="matrix(1 0 0 -1 0 413.4542)">
					<stop  offset="5.327789e-07" style="stop-color:#E0F0FF"/>
					<stop  offset="1" style="stop-color:#9CB1EC"/>
				</linearGradient>
				<path class="st34" d="M245.5,199.6L221,213.7c-1,0.5-1.7,0.2-1.7-0.7l0,0c0-1,0.8-2.2,1.7-2.7l24.5-14.1c1-0.6,1.7-0.2,1.7,0.7
					l0,0C247.2,197.8,246.4,199,245.5,199.6z"/>
			</g>
		</g>
		<g>
			
				<linearGradient id="SVGID_29_" gradientUnits="userSpaceOnUse" x1="195.2007" y1="206.2331" x2="213.807" y2="-32.3659" gradientTransform="matrix(1 0 0 -1 0 413.4542)">
				<stop  offset="0" style="stop-color:#2A3264"/>
				<stop  offset="1" style="stop-color:#4F61A5"/>
			</linearGradient>
			<path class="st35" d="M198.1,268.8c-0.5-0.1-0.9-0.5-1.3-1.1s-0.5-1.4-0.5-2.4c0-1,0.1-2,0.5-2.9c0.3-1,0.7-1.8,1.3-2.6
				c0.5-0.8,1.1-1.3,1.8-1.7c0.6-0.3,1.1-0.5,1.5-0.4c0.4,0,0.8,0.3,1.1,0.6l-1,1.9c-0.4-0.5-1-0.6-1.6-0.2c-0.4,0.2-0.8,0.6-1.1,1
				s-0.6,1-0.7,1.6c-0.2,0.6-0.3,1.2-0.3,1.8s0.1,1.1,0.3,1.5c0.2,0.4,0.4,0.6,0.7,0.7c0.3,0.1,0.7,0,1.1-0.2
				c0.6-0.4,1.2-1.1,1.6-2.1l1,0.8c-0.3,0.8-0.7,1.4-1.1,2c-0.5,0.6-1,1-1.5,1.3C199.2,268.8,198.6,268.9,198.1,268.8z"/>
			
				<linearGradient id="SVGID_30_" gradientUnits="userSpaceOnUse" x1="203.2501" y1="206.8608" x2="221.8565" y2="-31.7382" gradientTransform="matrix(1 0 0 -1 0 413.4542)">
				<stop  offset="0" style="stop-color:#2A3264"/>
				<stop  offset="1" style="stop-color:#4F61A5"/>
			</linearGradient>
			<path class="st36" d="M209.2,260.7l-3,1.7l-0.6,2.5l-1.5,0.9l2.9-11.6l1.5-0.9l2.9,8.3l-1.6,0.9L209.2,260.7z M208.7,259.3
				l-1-3.2l-1,4.4L208.7,259.3z"/>
			
				<linearGradient id="SVGID_31_" gradientUnits="userSpaceOnUse" x1="211.7957" y1="207.5272" x2="230.4021" y2="-31.0718" gradientTransform="matrix(1 0 0 -1 0 413.4542)">
				<stop  offset="0" style="stop-color:#2A3264"/>
				<stop  offset="1" style="stop-color:#4F61A5"/>
			</linearGradient>
			<path class="st37" d="M214.1,259.9c-0.5,0.1-0.9,0-1.1-0.2l0.5-2c0.3,0.1,0.6,0.2,1,0.2s0.8-0.2,1.1-0.4c0.4-0.2,0.7-0.5,0.9-0.8
				s0.3-0.6,0.3-1c0-0.2-0.1-0.4-0.2-0.5s-0.3-0.1-0.5-0.1s-0.4,0.1-0.8,0.1c-0.5,0.1-0.9,0.2-1.2,0.2s-0.6-0.1-0.8-0.4
				c-0.2-0.3-0.3-0.7-0.3-1.4c0-0.6,0.1-1.2,0.3-1.8c0.2-0.6,0.5-1.1,0.9-1.6c0.4-0.5,0.9-0.9,1.5-1.3c0.4-0.2,0.8-0.4,1.2-0.5
				c0.4-0.1,0.7-0.1,1,0.1l-0.5,2c-0.6-0.2-1.2-0.1-1.8,0.2c-0.4,0.2-0.7,0.5-0.9,0.9c-0.2,0.3-0.3,0.7-0.3,1s0.1,0.5,0.4,0.6
				s0.6,0,1.1-0.1c0.5-0.1,0.9-0.2,1.2-0.2s0.6,0.1,0.8,0.4s0.3,0.7,0.3,1.4c0,0.6-0.1,1.1-0.3,1.7c-0.2,0.6-0.5,1.1-0.9,1.6
				c-0.4,0.5-0.9,0.9-1.5,1.3C215.1,259.6,214.6,259.8,214.1,259.9z"/>
			
				<linearGradient id="SVGID_32_" gradientUnits="userSpaceOnUse" x1="220.417" y1="208.1995" x2="239.0233" y2="-30.3995" gradientTransform="matrix(1 0 0 -1 0 413.4542)">
				<stop  offset="0" style="stop-color:#2A3264"/>
				<stop  offset="1" style="stop-color:#4F61A5"/>
			</linearGradient>
			<path class="st38" d="M226.8,242.7v10l-1.5,0.9v-4.1l-2.9,1.7v4.1l-1.5,0.9v-10l1.5-0.9v3.9l2.9-1.7v-3.9L226.8,242.7z"/>
		</g>
		<g>
			
				<linearGradient id="SVGID_33_" gradientUnits="userSpaceOnUse" x1="113.8778" y1="146.7613" x2="77.7595" y2="-19.8753" gradientTransform="matrix(1 0 0 -1 0 413.4542)">
				<stop  offset="0" style="stop-color:#7BFFB9"/>
				<stop  offset="1" style="stop-color:#0E9DFB"/>
			</linearGradient>
			<path class="st39" d="M132.5,286.7v71.1c0,3.9-3.2,8.9-7.1,11.1l-55.9,32.3c-3.9,2.3-7.1,0.9-7.1-3v-71.1c0-3.9,3.2-8.9,7.1-11.1
				l55.9-32.3C129.3,281.5,132.5,282.8,132.5,286.7z"/>
			
				<linearGradient id="SVGID_34_" gradientUnits="userSpaceOnUse" x1="77.9768" y1="250.808" x2="105.8863" y2="-45.5255" gradientTransform="matrix(1 0 0 -1 0 413.4542)">
				<stop  offset="0" style="stop-color:#2A3264"/>
				<stop  offset="1" style="stop-color:#4F61A5"/>
			</linearGradient>
			<path class="st40" d="M132.5,340v17.9c0,3.9-3.2,8.9-7.1,11.1l-55.9,32.3c-3.9,2.3-7.1,0.9-7.1-3v-17.7L132.5,340z"/>
			
				<linearGradient id="SVGID_35_" gradientUnits="userSpaceOnUse" x1="89.1536" y1="211.241" x2="90.248" y2="4.9295" gradientTransform="matrix(1 0 0 -1 0 413.4542)">
				<stop  offset="0" style="stop-color:#7BFFB9"/>
				<stop  offset="1" style="stop-color:#0E9DFB"/>
			</linearGradient>
			<polygon class="st41" points="97.2,360.2 82.6,368.7 82.6,328 97.2,319.6 			"/>
			
				<linearGradient id="SVGID_36_" gradientUnits="userSpaceOnUse" x1="118.4321" y1="211.3963" x2="119.5266" y2="5.0848" gradientTransform="matrix(1 0 0 -1 0 413.4542)">
				<stop  offset="0" style="stop-color:#7BFFB9"/>
				<stop  offset="1" style="stop-color:#0E9DFB"/>
			</linearGradient>
			<polygon class="st42" points="126.4,343.4 111.8,351.8 111.8,311.1 126.4,302.7 			"/>
			<path class="st7" d="M126.2,299.8c-1.4,0.8-2.6,2.7-2.6,4.1c0,0.4,0.1,0.7,0.2,0.9l-14.6,23c-1.3,2.1-3.5,3.4-4.9,2.8l-2.9-1.2
				c-2.1-0.9-5.4,1.1-7.5,4.3l-7.3,11.5c-1.3,2.1-3.5,3.4-4.9,2.8c-1-0.4-2.3-0.2-3.8,0.6c-1.4,0.8-2.8,2.1-3.8,3.7l-4.5,7.1
				c-0.3,0-0.7,0.2-1.1,0.4c-1.4,0.8-2.6,2.7-2.6,4.1c0,1.4,1.2,1.9,2.6,1.1c1.4-0.8,2.6-2.7,2.6-4.1c0-0.4-0.1-0.7-0.2-0.9l4.5-7.1
				c1.3-2.1,3.5-3.4,4.9-2.8c2.1,0.9,5.4-1.1,7.5-4.3l7.3-11.5c0.6-1,1.5-1.9,2.4-2.4s1.8-0.7,2.4-0.4l2.9,1.2
				c2.1,0.9,5.4-1.1,7.5-4.3l14.6-23c0.3,0,0.7-0.2,1.1-0.4c1.4-0.8,2.6-2.7,2.6-4.1S127.6,299,126.2,299.8z"/>
			<g>
				<g>
					<path class="st28" d="M71.1,363.8c-0.2,0.1-0.5,0.2-0.7,0.1c-0.4-0.2-0.4-0.8,0-1.3l6.2-9.8c1-1.6,2.3-2.9,3.8-3.7
						c1.4-0.8,2.8-1,3.8-0.6c1.3,0.6,3.5-0.7,4.9-2.8l7.3-11.5c2.1-3.3,5.4-5.2,7.5-4.3l2.9,1.2c1.3,0.6,3.5-0.7,4.9-2.8l16.3-25.7
						c0.4-0.6,1-0.9,1.3-0.8c0.4,0.2,0.4,0.8,0,1.3l-16.3,25.7c-2.1,3.3-5.4,5.2-7.5,4.3l-2.9-1.2c-0.6-0.3-1.5-0.1-2.4,0.4
						s-1.8,1.4-2.4,2.4l-7.3,11.5c-2.1,3.3-5.4,5.2-7.5,4.3c-1.3-0.6-3.5,0.7-4.9,2.8l-6.2,9.8C71.5,363.4,71.3,363.7,71.1,363.8z"
						/>
				</g>
				<g>
					
						<ellipse transform="matrix(0.6011 -0.7992 0.7992 0.6011 -261.6329 201.5589)" class="st28" cx="71.1" cy="362.9" rx="3.5" ry="2"/>
				</g>
				<g>
					
						<ellipse transform="matrix(0.6011 -0.7992 0.7992 0.6011 -190.7956 223.5295)" class="st28" cx="128.5" cy="302.9" rx="3.5" ry="2"/>
				</g>
			</g>
			<path class="st43" d="M82.7,318.1L71,324.9c-0.5,0.3-1,0.1-1-0.4l0,0c0-0.5,0.4-1.2,1-1.5l11.7-6.8c0.5-0.3,1-0.1,1,0.4l0,0
				C83.7,317.1,83.2,317.8,82.7,318.1z"/>
			<path class="st43" d="M87.3,319.6L71,329c-0.5,0.3-1,0.1-1-0.4l0,0c0-0.5,0.4-1.2,1-1.5l16.3-9.4c0.5-0.3,1-0.1,1,0.4l0,0
				C88.2,318.6,87.8,319.2,87.3,319.6z"/>
			
				<linearGradient id="SVGID_37_" gradientUnits="userSpaceOnUse" x1="78.2719" y1="73.279" x2="106.3638" y2="3.9614" gradientTransform="matrix(1 0 0 -1 0 413.4542)">
				<stop  offset="0" style="stop-color:#7BFFB9"/>
				<stop  offset="1" style="stop-color:#0E9DFB"/>
			</linearGradient>
			<path class="st44" d="M111.8,363l-40.3,23.3c-0.8,0.5-1.5,0.2-1.5-0.6l0,0c0-0.8,0.7-1.9,1.5-2.3l40.3-23.3
				c0.8-0.5,1.5-0.2,1.5,0.6l0,0C113.3,361.5,112.6,362.5,111.8,363z"/>
			<path class="st43" d="M118.7,365.1l-47.2,27.2c-0.8,0.5-1.5,0.2-1.5-0.6l0,0c0-0.8,0.7-1.9,1.5-2.3l47.2-27.2
				c0.8-0.5,1.5-0.2,1.5,0.6l0,0C120.1,363.6,119.5,364.7,118.7,365.1z"/>
		</g>
		<g>
			<g>
				
					<linearGradient id="SVGID_38_" gradientUnits="userSpaceOnUse" x1="284.8922" y1="378.6263" x2="283.7977" y2="292.5264" gradientTransform="matrix(1 0 0 -1 0 413.4542)">
					<stop  offset="0" style="stop-color:#D4B6FF"/>
					<stop  offset="1" style="stop-color:#7D35F0"/>
				</linearGradient>
				<path class="st45" d="M281.6,108.7L281.6,108.7c-0.5,0.3-1,0.3-1.3,0.1l-5.1-3.5c-0.6-0.4-0.4-1.5,0.3-2.5
					c0.7-1,1.8-1.4,2.3-1.1l3.8,2.6l8.8-16.3c0.6-1,1.6-1.8,2.3-1.6s0.8,1.1,0.3,2.2l-10.1,18.7
					C282.6,107.9,282.1,108.4,281.6,108.7z"/>
			</g>
			<g class="st46">
				
					<linearGradient id="SVGID_39_" gradientUnits="userSpaceOnUse" x1="287.9538" y1="356.4456" x2="309.5699" y2="249.1855" gradientTransform="matrix(1 0 0 -1 0 413.4542)">
					<stop  offset="0" style="stop-color:#D4B6FF"/>
					<stop  offset="1" style="stop-color:#7D35F0"/>
				</linearGradient>
				<path class="st47" d="M301.7,90.7c-0.9,0.5-1.6,0.2-1.6-0.7c0-11.4-7.2-16.6-16-11.5c-0.9,0.5-1.6,0.2-1.6-0.7
					c0-0.9,0.7-2.1,1.6-2.6c10.6-6.1,19.3-0.4,19.3,12.9C303.4,89,302.7,90.1,301.7,90.7z"/>
			</g>
			<g>
				
					<linearGradient id="SVGID_40_" gradientUnits="userSpaceOnUse" x1="283.9637" y1="-190.4691" x2="284.2184" y2="-238.4783" gradientTransform="matrix(1 -0.5774 0 -1 0 48.7427)">
					<stop  offset="0" style="stop-color:#D4B6FF"/>
					<stop  offset="1" style="stop-color:#7D35F0"/>
				</linearGradient>
				<path class="st48" d="M284.1,123.2c-10.6,6.1-19.3,0.4-19.3-12.9c0-13.2,8.6-29,19.3-35.1c0.9-0.5,1.6-0.2,1.6,0.7
					s-0.7,2.1-1.6,2.6c-8.8,5.1-16,18.5-16,29.9s7.2,16.6,16,11.5c8.8-5.1,16-18.5,16-29.9c0-0.9,0.7-2.1,1.6-2.6
					c0.9-0.5,1.6-0.2,1.6,0.7C303.4,101.3,294.7,117,284.1,123.2z"/>
			</g>
		</g>
		
			<linearGradient id="SVGID_41_" gradientUnits="userSpaceOnUse" x1="12.878" y1="167.4009" x2="159.3574" y2="103.0084" gradientTransform="matrix(1 0 0 -1 0 413.4542)">
			<stop  offset="1.400000e-02" style="stop-color:#FF9A59"/>
			<stop  offset="0.9911" style="stop-color:#F5CA68"/>
		</linearGradient>
		<path class="st49" d="M69.4,234.7l-0.5,2.3L68,248.6l-0.8,1.5c-0.1,0.6-0.1,1.2-0.2,1.8c0,0,0,0,0,0c-1.3,11-6.7,22.5-13.9,30.5
			c-1.7,1.9-3.5,3.5-5.3,4.9l-4.2,8.1c-1.6,0.1-3.1,0-4.5-0.4l-3.2-1.5l-3.5-1.7v0c-6.3-1.6-10.4-8.3-10.4-18.7
			c0-16.2,10.2-35.2,22.7-42.4c5.5-3.2,10.6-3.5,14.5-1.6l5.8,2.7l2.1,1c0,0,0,0,0,0C67.9,233.3,68.7,233.9,69.4,234.7z"/>
		<g>
			
				<linearGradient id="SVGID_42_" gradientUnits="userSpaceOnUse" x1="47.1948" y1="230.0043" x2="50.2046" y2="176.6479" gradientTransform="matrix(1 0 0 -1 0 413.4542)">
				<stop  offset="1.400000e-02" style="stop-color:#FFB873"/>
				<stop  offset="0.9911" style="stop-color:#FFD19A"/>
			</linearGradient>
			<path class="st50" d="M74.4,250.2c0,16.2-10.2,35.2-22.7,42.5c-2.9,1.7-5.6,2.5-8.1,2.8c-1.6,0.1-3.1,0-4.5-0.4
				c-1.1-0.3-2.2-0.8-3.2-1.5c-4.2-2.9-6.9-8.8-6.9-17.1c0-16.2,10.2-35.2,22.7-42.5c4.9-2.9,9.5-3.4,13.2-2.1
				c0.7,0.2,1.4,0.6,2.1,1c0,0,0,0,0,0c0.9,0.5,1.7,1.2,2.4,2C72.5,237.9,74.4,243.2,74.4,250.2z"/>
			
				<linearGradient id="SVGID_43_" gradientUnits="userSpaceOnUse" x1="67.8168" y1="142.7594" x2="142.5158" y2="108.2829" gradientTransform="matrix(1 0 0 -1 0 413.4542)">
				<stop  offset="1.400000e-02" style="stop-color:#FF9A59"/>
				<stop  offset="0.9911" style="stop-color:#F5CA68"/>
			</linearGradient>
			<path class="st51" d="M67.1,254.3c0,11-6.9,24-15.4,28.9c-2.8,1.6-5.4,2.2-7.7,1.8c0,0,0,0,0,0c-4.6-0.8-7.8-5.5-7.8-12.9
				c0-11,6.9-24,15.4-28.9c1.7-1,3.3-1.6,4.8-1.8c0,0,0,0,0,0C62.7,240.5,67.1,245.5,67.1,254.3z"/>
			
				<linearGradient id="SVGID_44_" gradientUnits="userSpaceOnUse" x1="48.1504" y1="126.5752" x2="55.5787" y2="209.9165" gradientTransform="matrix(1 0 0 -1 0 413.4542)">
				<stop  offset="1.400000e-02" style="stop-color:#FF9A59"/>
				<stop  offset="0.9911" style="stop-color:#F5CA68"/>
			</linearGradient>
			<path class="st52" d="M64.3,254.3c0,11-6.9,24-15.4,28.9c-1.7,1-3.3,1.5-4.8,1.8c0,0,0,0,0,0c-4.6-0.8-7.8-5.5-7.8-12.9
				c0-11,6.9-24,15.4-28.9c1.7-1,3.3-1.6,4.8-1.8c0,0,0,0,0,0C61.1,242.3,64.3,246.9,64.3,254.3z"/>
			<g>
				
					<linearGradient id="SVGID_45_" gradientUnits="userSpaceOnUse" x1="49.6898" y1="217.1481" x2="50.0546" y2="204.0142" gradientTransform="matrix(1 0 0 -1 0 413.4542)">
					<stop  offset="1.400000e-02" style="stop-color:#FFB873"/>
					<stop  offset="0.9911" style="stop-color:#FFD19A"/>
				</linearGradient>
				<path class="st53" d="M52.9,260.7c-1.9,0.2-2.6,0-2.6-0.9c0-0.8,0.5-1.9,1.9-2.7c1.6-0.9,2.6-0.8,3.2-0.9l0.6-3.6
					c-0.7,0-1.7,0.1-3.2,0.9v-2.5l-2.1,1.2v2.7c-2.3,1.9-3.7,4.7-3.7,7.2c0,2.7,1.6,3.2,3.9,2.9c1.6-0.2,2.3,0,2.3,1.1
					c0,1.1-0.8,2.2-2.1,3c-1.4,0.8-2.7,1-3.6,0.9l-0.7,3.7c0.8,0.1,2.2-0.2,3.7-0.9v2.7l2.1-1.2v-2.9c2.5-2,3.9-5,3.9-7.5
					C56.6,261.3,55.5,260.4,52.9,260.7z"/>
			</g>
		</g>
		<g>
			
				<linearGradient id="SVGID_46_" gradientUnits="userSpaceOnUse" x1="68.4717" y1="-95.1449" x2="69.2014" y2="-58.4794" gradientTransform="matrix(1 0 0 -1 0 413.4542)">
				<stop  offset="0" style="stop-color:#2A3264"/>
				<stop  offset="1" style="stop-color:#4F61A5"/>
			</linearGradient>
			<path class="st54" d="M91.5,461.4l-8.4,19.3c-1.6,4.2-7.1,7.3-13.7,7.3c-7.2,0-13.1-3.7-14-8.5l-8.1-18.2H91.5z"/>
			
				<linearGradient id="SVGID_47_" gradientUnits="userSpaceOnUse" x1="65.2209" y1="10.7364" x2="72.8825" y2="-87.0411" gradientTransform="matrix(1 0 0 -1 0 413.4542)">
				<stop  offset="0" style="stop-color:#2A3264"/>
				<stop  offset="1" style="stop-color:#4F61A5"/>
			</linearGradient>
			<path class="st55" d="M92.8,456.1c0,2.2-0.6,4.3-1.8,6.3c-3.5,5.8-11.9,9.9-21.6,9.9s-18-4.1-21.6-9.9c-1.2-1.9-1.8-4-1.8-6.3
				c0-8.9,10.5-16.1,23.4-16.1S92.8,447.2,92.8,456.1z"/>
			
				<linearGradient id="SVGID_48_" gradientUnits="userSpaceOnUse" x1="86.5739" y1="-48.197" x2="264.0638" y2="-61.331" gradientTransform="matrix(1 0 0 -1 0 413.4542)">
				<stop  offset="0" style="stop-color:#2A3264"/>
				<stop  offset="1" style="stop-color:#4F61A5"/>
			</linearGradient>
			<path class="st56" d="M91,462.4c-3.5,5.8-11.9,9.9-21.6,9.9s-18-4.1-21.6-9.9c0.8-7.8,10.1-13.9,21.6-13.9
				C80.9,448.5,90.2,454.6,91,462.4z"/>
			<path class="st57" d="M81,456.8c2.3,2.3,2,6.2-0.7,8.1c-2.8,2-6.6,3.2-10.9,3.2c-4.3,0-8.1-1.2-10.9-3.2
				c-2.6-1.8-3.1-5.5-0.9-7.9c2.5-2.7,6.9-4.5,11.8-4.5C74.2,452.6,78.5,454.3,81,456.8z"/>
			
				<linearGradient id="SVGID_49_" gradientUnits="userSpaceOnUse" x1="67.6408" y1="-15.081" x2="71.4714" y2="-75.2766" gradientTransform="matrix(1 0 0 -1 0 413.4542)">
				<stop  offset="0" style="stop-color:#7BFFB9"/>
				<stop  offset="1" style="stop-color:#0E9DFB"/>
			</linearGradient>
			<path class="st58" d="M85.6,435.9c-1.5,4-0.2,19.8-9.2,25.2c0,0,0,0,0,0c-1.2,0.7-2.6,1.2-4.2,1.5c-0.9,0.2-1.8,0.3-2.9,0.3
				c-0.5,0-1.1,0-1.7,0c-1-0.1-2-0.2-3.1-0.4c-4.1,0.3-9.8-5.8-13.2-24.5c-2.9-16.1-0.8-28.7-0.2-31.9c0.1-0.5,0.2-0.8,0.2-0.8
				s1.9,8.6,5.1,17.5c3.1,8.6,8.9,20,10.3,31.4c-2.3-24.3,6-39.2,4.9-47.7c6.5,11.8,4.9,31.9,4.1,39.7c0,0.3-0.1,0.6-0.1,0.8
				c0.1-0.1,0.1-0.3,0.2-0.4c0,0,0,0,0,0C77.9,441.9,80.9,437.5,85.6,435.9z"/>
			
				<linearGradient id="SVGID_50_" gradientUnits="userSpaceOnUse" x1="39.3984" y1="21.0206" x2="77.1583" y2="-78.943" gradientTransform="matrix(1 0 0 -1 0 413.4542)">
				<stop  offset="0" style="stop-color:#7BFFB9"/>
				<stop  offset="1" style="stop-color:#0E9DFB"/>
			</linearGradient>
			<path class="st59" d="M67.7,462.8c-1-0.1-2-0.2-3.1-0.4c-4.1,0.3-9.8-5.8-13.2-24.5c-2.9-16.1-0.8-28.7-0.2-31.9
				C51.3,416,55.3,446.6,67.7,462.8z"/>
			
				<linearGradient id="SVGID_51_" gradientUnits="userSpaceOnUse" x1="56.1468" y1="17.2377" x2="89.8923" y2="-72.0979" gradientTransform="matrix(1 0 0 -1 0 413.4542)">
				<stop  offset="0" style="stop-color:#7BFFB9"/>
				<stop  offset="1" style="stop-color:#0E9DFB"/>
			</linearGradient>
			<path class="st60" d="M75.7,446.9c0.1-0.1,0.1-0.3,0.2-0.4c-1.3,3.7-3,12.4-3.7,16.1c-0.9,0.2-1.8,0.3-2.9,0.3
				c0-0.2,0-0.4,0.1-0.5c0.2-0.5,2.1-9.1,3.7-18.6c1.6-9.5,2.4-25.5-1.4-37.3c6.5,11.8,4.9,31.9,4.1,39.7
				C75.8,446.4,75.7,446.7,75.7,446.9z"/>
			
				<linearGradient id="SVGID_52_" gradientUnits="userSpaceOnUse" x1="93.279" y1="-1.802" x2="69.93" y2="-70.755" gradientTransform="matrix(1 0 0 -1 0 413.4542)">
				<stop  offset="0" style="stop-color:#7BFFB9"/>
				<stop  offset="1" style="stop-color:#0E9DFB"/>
			</linearGradient>
			<path class="st61" d="M85.6,435.9c-1.5,4-0.2,19.8-9.2,25.2C81.4,454.3,80.9,439.4,85.6,435.9z"/>
		</g>
		<g>
			
				<linearGradient id="SVGID_53_" gradientUnits="userSpaceOnUse" x1="295.5372" y1="125.0404" x2="141.214" y2="1.3629" gradientTransform="matrix(1 0 0 -1 0 413.4542)">
				<stop  offset="5.327789e-07" style="stop-color:#E0F0FF"/>
				<stop  offset="1" style="stop-color:#FFFFFF"/>
			</linearGradient>
			<path class="st62" d="M79.6,480.7c-3.7,2.1-6.7,0.4-6.7-3.8v-49.5c0-4.2,3-9.4,6.7-11.5l118-68.1c3.7-2.1,6.6-0.4,6.6,3.8
				l-0.2,49.6c0,4.2-3,9.4-6.7,11.5L79.6,480.7z"/>
			<g>
				
					<linearGradient id="SVGID_54_" gradientUnits="userSpaceOnUse" x1="163.1731" y1="90.1876" x2="171.5642" y2="-16.7077" gradientTransform="matrix(1 0 0 -1 0 413.4542)">
					<stop  offset="5.327789e-07" style="stop-color:#E0F0FF"/>
					<stop  offset="1" style="stop-color:#9CB1EC"/>
				</linearGradient>
				<path class="st63" d="M187.3,381.8l-37.7,21.8c-1,0.5-1.7,0.2-1.7-0.7l0,0c0-1,0.8-2.2,1.7-2.7l37.7-21.8c1-0.5,1.7-0.2,1.7,0.7
					l0,0C189.1,380,188.3,381.3,187.3,381.8z"/>
				
					<linearGradient id="SVGID_55_" gradientUnits="userSpaceOnUse" x1="157.8288" y1="115.7828" x2="168.5626" y2="-20.9558" gradientTransform="matrix(1 0 0 -1 0 413.4542)">
					<stop  offset="5.327789e-07" style="stop-color:#E0F0FF"/>
					<stop  offset="1" style="stop-color:#9CB1EC"/>
				</linearGradient>
				<path class="st64" d="M183.1,397.9c-0.1,0-0.1,0.1-0.2,0.1c-3.5,2.1-7.1,4.1-10.7,6.2c-3.9,2.3-7.8,4.5-11.8,6.8
					c-3,1.7-6,3.5-9,5.2c-0.6,0.3-1.2,0.7-1.8,1c-1,0.5-1.7,0.2-1.7-0.7c0-1,0.8-2.2,1.7-2.7c2.2-1.3,4.4-2.5,6.6-3.8
					c4.5-2.6,9-5.2,13.5-7.9c4.4-2.5,8.7-5,13-7.6c0.5-0.3,1-0.5,1.5-0.3c0.4,0.2,0.5,0.8,0.4,1.2
					C184.6,396.6,183.9,397.4,183.1,397.9z"/>
			</g>
			<g>
				
					<linearGradient id="SVGID_56_" gradientUnits="userSpaceOnUse" x1="76.7007" y1="-1118.7281" x2="169.6804" y2="-1279.7991" gradientTransform="matrix(1 -1.1547 0 -1 0 -613.267)">
					<stop  offset="0" style="stop-color:#D4B6FF"/>
					<stop  offset="1" style="stop-color:#7D35F0"/>
				</linearGradient>
				<path class="st65" d="M122.3,448.4l-31.8,18.3c-3,1.7-5.5,0.7-5.5-2.3v-36.1c0-3,2.4-6.9,5.5-8.6l31.8-18.3
					c3-1.7,5.5-0.7,5.5,2.3v36.1C127.8,442.8,125.3,446.7,122.3,448.4z"/>
				<g>
					<path class="st28" d="M106.2,420.5c0.1-0.1,0.3-0.1,0.4-0.2c0,0.1,0.1,0,0.2,0c2.9,0,5.7,0,8.6,0c1,0,1.9,0,2.9,0
						c0.2,0,0.3,0.1,0.2,0.3c0,0.2-0.2,0.4-0.3,0.5c-0.1,0.1-0.1,0.2-0.1,0.2c0,0.3,0,0.7,0,1c0,0.4-0.2,0.9-0.5,1.3
						c-0.1,0.1-0.2,0.3-0.2,0.4c0,0.5,0,1,0,1.5c0,0.5-0.3,0.9-0.6,1.3c-0.2,0.2-0.2,0.3-0.2,0.5c0,3,0,5.9,0,8.9c0,0,0,0.1,0,0.2
						c0,0.1,0,0.1,0.1,0.1c0.6-0.1,0.8,0.1,0.8,0.7c0,0.4,0,0.9,0,1.3c0,0.1,0,0.2,0.2,0.2c0.3,0,0.5,0.3,0.5,0.7c0,0.3,0,0.6,0,0.9
						c0,0.4-0.1,0.6-0.5,0.8c-2.6,1.5-5.2,3-7.8,4.5c-4.9,2.8-9.8,5.6-14.6,8.5c-0.4,0.2-0.5,0.2-0.5-0.2c0-0.3,0-0.6,0-0.9
						c0-0.4,0.2-0.9,0.5-1.3c0.1-0.2,0.1-0.3,0.1-0.4c0-0.5,0-0.9,0-1.4c0-0.5,0.2-1,0.7-1.4c0.2-0.2,0.2-0.3,0.2-0.5
						c0-2.1,0-4.1,0-6.2c0-0.9,0-1.8,0-2.7c0-0.1,0-0.2-0.1-0.2c-0.5,0.1-0.8-0.1-0.8-0.7c0-0.4,0-0.9,0-1.3c0-0.1,0-0.2-0.1-0.2
						c-0.4,0-0.5-0.3-0.5-0.7c0-0.3,0-0.6,0-1c0-0.1,0-0.2-0.2-0.1c-0.1,0.1-0.2,0-0.3-0.1c0-0.1,0-0.3,0.1-0.5
						c0.1-0.1,0.2-0.2,0.2-0.3c3.8-4.4,7.5-8.7,11.3-13.1C106.1,420.8,106.2,420.7,106.2,420.5z M102.2,432.8
						c-0.4,0.3-0.9,0.5-1.4,0.8c-0.2,0.1-0.2,0.2-0.2,0.4c0,0.4,0,0.9,0,1.3c0,0.5-0.3,1-0.7,1.4c-0.1,0.1-0.2,0.2-0.2,0.4
						c0,0.4,0,0.8,0,1.2c0,2.6,0,5.2,0,7.8c0,0.1-0.1,0.3,0.1,0.2c0.5-0.1,0.8,0.1,0.8,0.7c0,0.4,0,0.8,0,1.2c0,0.2,0,0.3,0.2,0.1
						c0.9-0.5,1.8-1,2.7-1.5c0.2-0.1,0.2-0.2,0.2-0.4c0-0.4,0-0.9,0-1.3c0-0.5,0.2-1,0.7-1.5c0.1-0.1,0.2-0.2,0.2-0.3
						c0-3,0-6.1,0-9.1c0-0.1,0-0.2-0.1-0.1c-0.5,0.1-0.8-0.1-0.8-0.7c0-0.4,0-0.8,0-1.2c0-0.2,0-0.2-0.2-0.1
						C103.1,432.3,102.7,432.6,102.2,432.8z M110.6,428c-0.5,0.3-0.9,0.5-1.4,0.8c-0.2,0.1-0.2,0.2-0.2,0.4c0,0.4,0,0.9,0,1.3
						c0,0.6-0.2,1-0.7,1.5c-0.1,0.1-0.2,0.2-0.2,0.3c0,3,0,6.1,0,9.1c0,0.1,0,0.2,0.1,0.1c0.5-0.1,0.7,0.1,0.7,0.7
						c0,0.4,0,0.8,0,1.2c0,0.2,0,0.2,0.2,0.1c0.9-0.5,1.8-1.1,2.7-1.6c0.2-0.1,0.2-0.2,0.2-0.4c0-0.5,0-0.9,0-1.4
						c0-0.5,0.3-1,0.7-1.4c0.2-0.2,0.2-0.3,0.2-0.5c0-1.9,0-3.9,0-5.8c0-1,0-2.1,0-3.1c0-0.1,0-0.2-0.1-0.2
						c-0.5,0.1-0.8-0.1-0.8-0.7c0-0.4,0-0.8,0-1.2c0-0.2-0.1-0.2-0.2-0.1C111.5,427.5,111.1,427.7,110.6,428z M96.5,432.7
						c6.6-3.8,13.1-7.6,19.7-11.4c-0.1,0-0.1,0-0.2,0c-3.2,0-6.3,0-9.5,0c-0.1,0-0.2,0.1-0.4,0.2c-2.5,2.9-4.9,5.7-7.4,8.5
						C98.1,430.9,97.4,431.7,96.5,432.7z M106.4,429.6c2-1.2,4.1-2.3,6.1-3.5c1.5-0.9,2.9-1.7,4.4-2.5c0.4-0.2,0.5-0.4,0.5-0.8
						c0-0.2,0-0.5,0-0.7c0-0.5-0.1-0.6-0.5-0.3c-6.9,4-13.9,8-20.9,12c-0.1,0-0.1,0-0.1,0.1c-0.3,0.2-0.4,0.3-0.4,0.7
						c0,0.3,0,0.6,0,0.9c0,0.5,0.1,0.5,0.5,0.2C99.4,433.6,102.9,431.6,106.4,429.6z M106.4,447c3.5-2,7-4,10.5-6.1
						c0.5-0.3,0.5-0.3,0.5-0.8c0-0.5-0.1-0.5-0.5-0.3c-6.9,4-13.8,8-20.8,12c-0.7,0.4-0.7,0.4-0.7,1.1c0,0.2,0.1,0.3,0.3,0.2
						C99.3,451.1,102.8,449,106.4,447z M97,443.2c0,1.5,0,3,0,4.5c0,0.2,0,0.2,0.2,0.1c0.5-0.3,1.1-0.6,1.6-0.9
						c0.2-0.1,0.2-0.2,0.2-0.4c0-3,0-6,0-9c0-0.2,0-0.2-0.2-0.1c-0.5,0.3-1.1,0.6-1.6,0.9c-0.2,0.1-0.2,0.2-0.2,0.4
						C97,440.2,97,441.7,97,443.2z M105.4,438.3c0,1.5,0,3,0,4.5c0,0.2,0,0.2,0.2,0.1c0.5-0.3,1.1-0.6,1.6-0.9
						c0.2-0.1,0.2-0.2,0.2-0.4c0-3,0-6,0-9c0-0.2,0-0.2-0.2-0.1c-0.5,0.3-1.1,0.6-1.6,0.9c-0.2,0.1-0.2,0.2-0.2,0.4
						C105.4,435.3,105.4,436.8,105.4,438.3z M115.8,432.3c0-1.5,0-3,0-4.5c0-0.2-0.1-0.2-0.2-0.1c-0.5,0.3-1.1,0.6-1.6,0.9
						c-0.1,0.1-0.2,0.1-0.2,0.3c0,3,0,6,0,9.1c0,0.2,0.1,0.2,0.2,0.1c0.5-0.3,1.1-0.6,1.6-0.9c0.2-0.1,0.2-0.2,0.2-0.4
						C115.8,435.3,115.8,433.8,115.8,432.3z M98,450c0.6-0.3,1.2-0.7,1.8-1c0.2-0.1,0.2-0.2,0.2-0.4c0-0.1,0-0.3-0.2-0.2
						c-1.2,0.7-2.3,1.4-3.5,2c-0.2,0.1-0.2,0.2-0.2,0.4s0,0.3,0.2,0.2C96.8,450.6,97.4,450.3,98,450z M106.4,445.1
						c0.6-0.3,1.1-0.7,1.7-1c0.2-0.1,0.2-0.2,0.2-0.4s0-0.3-0.2-0.1c-1.1,0.7-2.3,1.3-3.4,2c-0.2,0.1-0.2,0.2-0.2,0.4s0,0.3,0.2,0.1
						C105.3,445.7,105.8,445.4,106.4,445.1z M114.8,440.2c0.6-0.3,1.2-0.7,1.7-1c0.2-0.1,0.2-0.2,0.2-0.4s0-0.3-0.2-0.1
						c-1.1,0.7-2.3,1.3-3.4,2c-0.2,0.1-0.2,0.2-0.2,0.4c0,0.2,0,0.3,0.2,0.1C113.7,440.9,114.2,440.6,114.8,440.2z M98,435.8
						C98,435.8,98,435.8,98,435.8c0.6-0.4,1.2-0.7,1.8-1c0.2-0.1,0.2-0.2,0.2-0.4c0-0.2,0-0.2-0.2-0.1c-1.1,0.7-2.3,1.3-3.4,2
						c-0.2,0.1-0.2,0.2-0.2,0.4c0,0.2,0,0.3,0.2,0.2C96.9,436.4,97.4,436.1,98,435.8z M106.4,430.9
						C106.4,430.9,106.4,430.9,106.4,430.9c0.6-0.3,1.1-0.7,1.7-1c0.2-0.1,0.2-0.2,0.2-0.4c0-0.2,0-0.2-0.2-0.1
						c-1.1,0.7-2.3,1.3-3.4,2c-0.2,0.1-0.2,0.2-0.2,0.4c0,0.2,0,0.2,0.2,0.1C105.3,431.6,105.8,431.2,106.4,430.9z M114.8,425.5
						c-0.6,0.3-1.1,0.7-1.7,1c-0.2,0.1-0.2,0.2-0.2,0.4c0,0.2,0,0.3,0.2,0.2c1.1-0.7,2.3-1.3,3.4-2c0.2-0.1,0.2-0.2,0.2-0.4
						c0-0.2,0-0.2-0.2-0.1C116,424.9,115.4,425.2,114.8,425.5z M98,436.5c-0.6,0.3-1.1,0.7-1.7,1c-0.1,0.1-0.2,0.1-0.2,0.3
						c0,0.2,0,0.3,0.2,0.2c0,0,0.1,0,0.1,0c1.1-0.6,2.1-1.2,3.2-1.9c0,0,0.1,0,0.1-0.1c0.1-0.1,0.2-0.3,0.2-0.5c0-0.2-0.1-0.1-0.2,0
						C99.1,435.9,98.6,436.2,98,436.5z M106.4,431.7c-0.6,0.3-1.1,0.7-1.7,1c-0.1,0.1-0.2,0.1-0.2,0.3c0,0.2,0,0.3,0.2,0.2
						c0,0,0.1,0,0.1-0.1c1.1-0.6,2.1-1.2,3.2-1.8c0.1,0,0.1,0,0.1-0.1c0.2-0.1,0.2-0.3,0.2-0.5c0-0.2-0.1-0.1-0.2,0
						C107.6,431,107,431.4,106.4,431.7z M114.8,426.8c-0.6,0.3-1.1,0.6-1.7,1c-0.1,0-0.2,0.1-0.2,0.2c0,0.1,0,0.3,0.1,0.3
						c0.1,0,0.2,0,0.3-0.1c1-0.6,2.1-1.2,3.1-1.8c0,0,0.1,0,0.1-0.1c0.2-0.1,0.2-0.3,0.2-0.5c0-0.2-0.1-0.1-0.2,0
						C115.9,426.2,115.4,426.5,114.8,426.8z M106.4,443.8c0.6-0.3,1.1-0.7,1.7-1c0.1,0,0.2-0.1,0.2-0.3c0-0.2,0-0.3-0.2-0.2
						c-0.1,0-0.1,0-0.1,0.1c-1,0.6-2.1,1.2-3.1,1.8c0,0-0.1,0-0.1,0.1c-0.2,0.1-0.2,0.3-0.2,0.5c0,0.2,0.1,0.1,0.2,0
						C105.3,444.4,105.8,444.1,106.4,443.8z M98,448.6c0.6-0.3,1.1-0.6,1.7-1c0.1,0,0.2-0.1,0.2-0.3c0-0.2,0-0.3-0.2-0.2
						c0,0-0.1,0-0.1,0.1c-1.1,0.6-2.1,1.2-3.2,1.8c0,0-0.1,0-0.1,0.1c-0.2,0.1-0.2,0.3-0.2,0.5c0,0.2,0.1,0,0.2,0
						C96.9,449.3,97.4,449,98,448.6z M114.8,438.9c0.6-0.3,1.1-0.6,1.7-1c0.1,0,0.2-0.1,0.2-0.3c0-0.2,0-0.3-0.2-0.2
						c0,0-0.1,0-0.1,0.1c-1.1,0.6-2.1,1.2-3.2,1.8c0,0-0.1,0-0.1,0.1c-0.2,0.1-0.2,0.3-0.2,0.5c0,0.2,0.1,0.1,0.2,0
						C113.7,439.6,114.3,439.3,114.8,438.9z"/>
				</g>
			</g>
		</g>
	</g>
</g>
<g>
	
		<linearGradient id="SVGID_57_" gradientUnits="userSpaceOnUse" x1="-14.6684" y1="-116.6379" x2="15.1449" y2="-116.6379" gradientTransform="matrix(1 0 0 -1 0 413.4542)">
		<stop  offset="0" style="stop-color:#275C24"/>
		<stop  offset="1" style="stop-color:#4DB748"/>
	</linearGradient>
	<polygon class="st66" points="0,513.3 18.2,523.8 18.2,546.9 0,536.4 	"/>
	
		<linearGradient id="SVGID_58_" gradientUnits="userSpaceOnUse" x1="0.6634" y1="-116.6379" x2="63.4402" y2="-116.6379" gradientTransform="matrix(1 0 0 -1 0 413.4542)">
		<stop  offset="0" style="stop-color:#275C24"/>
		<stop  offset="1" style="stop-color:#4DB748"/>
	</linearGradient>
	<polygon class="st67" points="36.4,513.3 18.2,523.8 18.2,546.9 36.4,536.4 	"/>
	<polygon class="st68" points="0,513.3 18.2,502.8 36.4,513.3 18.2,523.8 	"/>
</g>
<g>
	
		<linearGradient id="SVGID_59_" gradientUnits="userSpaceOnUse" x1="382.2581" y1="284.2459" x2="402.4934" y2="284.2459" gradientTransform="matrix(1 0 0 -1 0 413.4542)">
		<stop  offset="0" style="stop-color:#9B59B6"/>
		<stop  offset="1" style="stop-color:#F38AB8"/>
	</linearGradient>
	<polygon class="st69" points="392.2,117.8 404.6,124.9 404.6,140.6 392.2,133.5 	"/>
	
		<linearGradient id="SVGID_60_" gradientUnits="userSpaceOnUse" x1="392.6643" y1="284.2459" x2="435.273" y2="284.2459" gradientTransform="matrix(1 0 0 -1 0 413.4542)">
		<stop  offset="0" style="stop-color:#9B59B6"/>
		<stop  offset="1" style="stop-color:#F38AB8"/>
	</linearGradient>
	<polygon class="st70" points="416.9,117.8 404.6,124.9 404.6,140.6 416.9,133.5 	"/>
	<polygon class="st71" points="392.2,117.8 404.6,110.7 416.9,117.8 404.6,124.9 	"/>
</g>
<g>
	
		<linearGradient id="SVGID_61_" gradientUnits="userSpaceOnUse" x1="335.4802" y1="389.5992" x2="361.515" y2="389.5992" gradientTransform="matrix(1 0 0 -1 0 413.4542)">
		<stop  offset="0" style="stop-color:#275C24"/>
		<stop  offset="1" style="stop-color:#4DB748"/>
	</linearGradient>
	<polygon class="st72" points="348.3,9.2 364.2,18.4 364.2,38.5 348.3,29.4 	"/>
	
		<linearGradient id="SVGID_62_" gradientUnits="userSpaceOnUse" x1="348.8688" y1="389.5992" x2="403.6898" y2="389.5992" gradientTransform="matrix(1 0 0 -1 0 413.4542)">
		<stop  offset="0" style="stop-color:#275C24"/>
		<stop  offset="1" style="stop-color:#4DB748"/>
	</linearGradient>
	<polygon class="st73" points="380.1,9.2 364.2,18.4 364.2,38.5 380.1,29.4 	"/>
	<polygon class="st68" points="348.3,9.2 364.2,0 380.1,9.2 364.2,18.4 	"/>
</g>
<g>
	
		<linearGradient id="SVGID_63_" gradientUnits="userSpaceOnUse" x1="378.1765" y1="32.0289" x2="402.1112" y2="32.0289" gradientTransform="matrix(1 0 0 -1 0 413.4542)">
		<stop  offset="0" style="stop-color:#EF4723"/>
		<stop  offset="1" style="stop-color:#ED7E3A"/>
	</linearGradient>
	<polygon class="st74" points="390,367.9 404.6,376.4 404.6,394.9 390,386.5 	"/>
	
		<linearGradient id="SVGID_64_" gradientUnits="userSpaceOnUse" x1="390.4853" y1="32.0289" x2="440.8835" y2="32.0289" gradientTransform="matrix(1 0 0 -1 0 413.4542)">
		<stop  offset="0" style="stop-color:#EF4723"/>
		<stop  offset="1" style="stop-color:#ED7E3A"/>
	</linearGradient>
	<polygon class="st75" points="419.2,367.9 404.6,376.4 404.6,394.9 419.2,386.5 	"/>
	<polygon class="st76" points="390,367.9 404.6,359.5 419.2,367.9 404.6,376.4 	"/>
</g>
<g>
	
		<linearGradient id="SVGID_65_" gradientUnits="userSpaceOnUse" x1="21.6859" y1="389.1642" x2="45.4152" y2="389.1642" gradientTransform="matrix(1 0 0 -1 0 413.4542)">
		<stop  offset="0" style="stop-color:#4086B8"/>
		<stop  offset="1" style="stop-color:#66AFB8"/>
	</linearGradient>
	<polygon class="st77" points="33.4,10.9 47.8,19.3 47.8,37.7 33.4,29.3 	"/>
	
		<linearGradient id="SVGID_66_" gradientUnits="userSpaceOnUse" x1="33.889" y1="389.1642" x2="83.8548" y2="389.1642" gradientTransform="matrix(1 0 0 -1 0 413.4542)">
		<stop  offset="0" style="stop-color:#4086B8"/>
		<stop  offset="1" style="stop-color:#66AFB8"/>
	</linearGradient>
	<polygon class="st78" points="62.3,10.9 47.8,19.3 47.8,37.7 62.3,29.3 	"/>
	<polygon class="st79" points="33.4,10.9 47.8,2.5 62.3,10.9 47.8,19.3 	"/>
</g>
</svg>
